<svg xmlns='http://www.w3.org/2000/svg' xmlns:xlink='http://www.w3.org/1999/xlink' width="" height="" viewBox="0 0 192 88" preserveAspectRatio='xMidYMid meet' role='img' aria-hidden='true'>
    <g>
        <path
        d="M12.3109 59.782C11.9712 59.7254 11.6033 59.6758 11.2071 59.6334C10.8548 59.5934 10.5006 59.5721 10.1459 59.5697C9.00193 59.5116 7.86392 59.7687 6.8558 60.3131C6.45502 60.5652 6.13057 60.922 5.91742 61.345C5.70428 61.7681 5.61053 62.2413 5.64627 62.7137C5.60727 63.3166 5.77163 63.9152 6.113 64.4134C6.40644 64.7961 6.79401 65.0961 7.23787 65.2841C7.6842 65.4702 8.15696 65.5849 8.63888 65.6241C9.13412 65.6667 9.56572 65.688 9.93368 65.6879C10.3604 65.6876 10.7863 65.652 11.2071 65.5814C11.6317 65.5105 11.9996 65.4468 12.3109 65.3903V59.782ZM12.3109 55.4058C12.3342 54.834 12.2176 54.2651 11.9712 53.7486C11.757 53.3367 11.434 52.9914 11.0374 52.7503C10.5868 52.491 10.0887 52.3248 9.57274 52.2616C8.93281 52.1725 8.28728 52.1299 7.64121 52.1341C5.97579 52.1586 4.32604 52.46 2.75939 53.026C2.39433 52.3632 2.09568 51.6658 1.86779 50.9441C1.65527 50.1838 1.55517 49.3965 1.57065 48.6072C2.78697 48.1896 4.03675 47.877 5.30633 47.6726C6.45714 47.4822 7.62114 47.3827 8.78754 47.3751C11.7307 47.3751 14.0301 48.0833 15.6859 49.4996C17.3417 50.9159 18.1695 53.1819 18.1694 56.2974V69.0438C16.9829 69.4043 15.7784 69.7021 14.5607 69.9361C12.9794 70.2345 11.3727 70.3768 9.76368 70.361C8.43097 70.3718 7.10076 70.2437 5.7946 69.9786C4.68745 69.7634 3.63406 69.3302 2.69566 68.704C1.84472 68.1232 1.15753 67.3329 0.700252 66.4092C0.203251 65.3323 -0.0365185 64.1543 -8.39541e-05 62.9686C-0.0419052 61.7687 0.260186 60.582 0.870518 59.5484C1.43439 58.6435 2.20555 57.8862 3.12013 57.339C4.07273 56.7738 5.11292 56.3717 6.1978 56.1493C7.31405 55.9102 8.4523 55.7891 9.59381 55.7881C10.4146 55.7881 11.3202 55.8306 12.3107 55.9156L12.3109 55.4058ZM36.1731 38.7929C36.672 38.7091 37.1751 38.6523 37.6802 38.6228C38.1755 38.5945 38.6636 38.5804 39.1447 38.5805C39.6258 38.5805 40.121 38.5946 40.6305 38.6228C41.1427 38.6515 41.653 38.7083 42.159 38.7929V69.1294C40.83 69.5256 39.4755 69.8308 38.1051 70.0429C36.4527 70.2741 34.7853 70.3807 33.117 70.3616C31.6584 70.3675 30.2068 70.16 28.8083 69.7456C27.4749 69.3559 26.2382 68.69 25.1786 67.7911C24.093 66.8458 23.2427 65.6601 22.6952 64.3282C21.5228 61.1912 21.4777 57.7437 22.5678 54.5771C23.0597 53.1988 23.825 51.9342 24.8177 50.8595C25.8161 49.7959 27.0228 48.9498 28.3626 48.3739C29.8244 47.7497 31.4005 47.4386 32.9897 47.4604C33.4992 47.4604 34.0299 47.4816 34.5817 47.5241C35.12 47.5643 35.6531 47.6568 36.1735 47.8003L36.1731 38.7929ZM36.1731 52.4317C35.7191 52.3119 35.2584 52.2197 34.7933 52.1554C34.3492 52.1083 33.9028 52.087 33.4562 52.0917C32.607 52.0713 31.7667 52.2688 31.0153 52.6653C30.3333 53.0374 29.7453 53.5606 29.2959 54.1948C28.8238 54.8754 28.4853 55.6396 28.2985 56.4468C28.0839 57.3299 27.9769 58.2358 27.9801 59.1447C27.956 60.1459 28.0995 61.1441 28.4045 62.098C28.6381 62.8245 29.0378 63.4864 29.5719 64.0312C30.0682 64.5133 30.6721 64.8701 31.3337 65.0721C32.0491 65.2898 32.7935 65.3972 33.5412 65.3907C33.9806 65.3928 34.4199 65.3715 34.8571 65.327C35.303 65.2741 35.7434 65.1817 36.1729 65.0508L36.1731 52.4317ZM58.4217 59.782C58.0821 59.7254 57.7142 59.6758 57.318 59.6334C56.9657 59.5934 56.6114 59.5721 56.2569 59.5697C55.113 59.5116 53.9751 59.7688 52.967 60.3131C52.5663 60.5652 52.2418 60.922 52.0287 61.345C51.8155 61.7681 51.7218 62.2413 51.7575 62.7137C51.7186 63.3166 51.883 63.9151 52.2245 64.4133C52.5179 64.796 52.9054 65.0961 53.3493 65.2841C53.7957 65.4702 54.2685 65.5849 54.7504 65.6241C55.2456 65.6667 55.6772 65.688 56.0451 65.6879C56.4718 65.6876 56.8978 65.652 57.3186 65.5814C57.7432 65.5105 58.1111 65.4468 58.4223 65.3903L58.4217 59.782ZM58.4217 55.4058C58.445 54.834 58.3284 54.2651 58.0821 53.7486C57.8678 53.3367 57.5449 52.9914 57.1483 52.7503C56.6976 52.4909 56.1996 52.3247 55.6836 52.2616C55.0437 52.1725 54.3981 52.1299 53.7521 52.1341C52.0866 52.1586 50.4369 52.46 48.8702 53.026C48.5052 52.3632 48.2066 51.6658 47.9786 50.9441C47.7662 50.1838 47.6661 49.3965 47.6816 48.6072C48.8979 48.1896 50.1477 47.877 51.4172 47.6726C52.568 47.4822 53.732 47.3827 54.8984 47.3751C57.8416 47.3751 60.141 48.0833 61.7967 49.4996C63.4525 50.9159 64.2803 53.1819 64.2802 56.2974V69.0438C63.0938 69.4043 61.8892 69.7021 60.6715 69.9361C59.0903 70.2345 57.4835 70.3768 55.8745 70.361C54.5417 70.3718 53.2115 70.2437 51.9054 69.9786C50.7982 69.7634 49.7448 69.3301 48.8064 68.704C47.9555 68.1232 47.2683 67.3329 46.8111 66.4092C46.3139 65.332 46.0741 64.1537 46.1106 62.9677C46.0688 61.7678 46.3709 60.581 46.9812 59.5474C47.5451 58.6425 48.3164 57.8852 49.2311 57.3381C50.1837 56.7729 51.2238 56.3708 52.3087 56.1483C53.425 55.9093 54.5632 55.7882 55.7047 55.7872C56.5255 55.7872 57.4312 55.8297 58.4216 55.9147V55.4049L58.4217 55.4058ZM68.9964 47.843C69.3812 47.7598 69.7713 47.7031 70.1638 47.6732C70.5458 47.6449 70.9774 47.6307 71.4586 47.6307C72.2718 47.6328 73.0826 47.7183 73.8784 47.8857C73.9836 48.0796 74.0621 48.2868 74.1118 48.5017C74.1827 48.7707 74.2536 49.0612 74.3245 49.373C74.3954 49.6848 74.4519 49.9893 74.4942 50.2865C74.5368 50.5839 74.5722 50.8317 74.6005 51.03C74.8697 50.5559 75.1823 50.1078 75.5344 49.6916C75.9194 49.2375 76.3702 48.8437 76.8717 48.5232C77.4203 48.1714 78.0125 47.8929 78.6332 47.6948C79.3336 47.4748 80.0644 47.3672 80.7984 47.376C81.9719 47.3673 83.1347 47.5986 84.2157 48.0558C85.2893 48.5181 86.2412 49.2235 86.9963 50.1165C87.8406 51.1331 88.469 52.3114 88.843 53.5793C89.3111 55.1793 89.5329 56.8413 89.5009 58.5081C89.527 60.1928 89.2539 61.8689 88.6943 63.458C88.1967 64.853 87.3998 66.122 86.3595 67.1755C85.2987 68.222 84.0243 69.0265 82.6238 69.5337C81.0173 70.1089 79.3204 70.3896 77.6144 70.3622C77.1333 70.3622 76.6592 70.341 76.1922 70.2985C75.7252 70.256 75.336 70.2064 75.0247 70.1497V79.9221C74.4871 80.007 73.9706 80.0636 73.4752 80.092C72.9798 80.1204 72.4916 80.1345 72.0108 80.1344C71.5296 80.1344 71.0414 80.1203 70.546 80.092C70.0506 80.0637 69.5342 80.0071 68.9966 79.9221L68.9964 47.843ZM75.0245 65.1784C75.8809 65.4173 76.7673 65.5317 77.6562 65.5182C78.4138 65.5648 79.1719 65.4357 79.8715 65.1409C80.571 64.8461 81.1931 64.3936 81.6893 63.8187C82.6233 62.6857 83.0903 60.972 83.0903 58.6776C83.0954 57.8584 83.0244 57.0406 82.8779 56.2346C82.7615 55.5504 82.5166 54.8944 82.1562 54.3015C81.8327 53.779 81.3887 53.3418 80.8615 53.0266C80.2851 52.7307 79.6487 52.5711 79.001 52.56C78.3534 52.549 77.7118 52.6868 77.1258 52.9629C76.6376 53.2257 76.2219 53.6052 75.9158 54.0677C75.5913 54.5667 75.3611 55.1212 75.2366 55.7035C75.0915 56.3591 75.0202 57.0289 75.024 57.7004L75.0245 65.1784ZM94.3018 52.474H91.5425L91.3299 51.6242L99.2684 41.4697H100.245V47.8854H105.382C105.46 48.2643 105.516 48.6472 105.551 49.0325C105.58 49.3725 105.594 49.7266 105.594 50.0948C105.594 50.4914 105.58 50.8737 105.551 51.2419C105.517 51.6554 105.46 52.0667 105.382 52.4741H100.245V61.0992C100.227 61.8134 100.299 62.527 100.457 63.2235C100.563 63.6897 100.774 64.1256 101.073 64.4983C101.335 64.8053 101.682 65.0272 102.07 65.1356C102.527 65.2565 102.999 65.3137 103.471 65.3055C103.891 65.3057 104.31 65.2701 104.724 65.199C105.134 65.1281 105.495 65.0644 105.806 65.0079C106.005 65.551 106.148 66.1135 106.231 66.6861C106.31 67.1993 106.353 67.7176 106.358 68.2369C106.358 68.5484 106.351 68.8104 106.337 69.0229C106.322 69.2355 106.301 69.4408 106.273 69.6389C104.952 69.9529 103.598 70.1097 102.24 70.1063C99.6648 70.1063 97.6979 69.5044 96.3395 68.3006C94.981 67.0969 94.3018 65.1353 94.3017 62.4161L94.3018 52.474ZM110.65 52.474H107.806C107.718 52.0888 107.654 51.6986 107.615 51.3055C107.573 50.9174 107.552 50.5274 107.551 50.1371C107.55 49.3792 107.635 48.6238 107.806 47.8853H116.551V69.8517C115.569 70.0185 114.575 70.1037 113.579 70.1066C112.597 70.1025 111.618 70.0172 110.65 69.8517L110.65 52.474ZM109.758 44.1888C109.591 43.2491 109.505 42.2965 109.504 41.342C109.508 40.3875 109.593 39.4351 109.758 38.4951C110.239 38.4103 110.756 38.3466 111.308 38.304C111.86 38.2613 112.362 38.2401 112.815 38.2402C113.296 38.2402 113.82 38.2615 114.386 38.304C114.952 38.3464 115.475 38.4102 115.956 38.4951C116.04 38.966 116.097 39.4412 116.126 39.9185C116.155 40.3859 116.169 40.8604 116.169 41.342C116.169 41.7951 116.154 42.2624 116.126 42.744C116.097 43.2285 116.041 43.7108 115.956 44.1887C115.444 44.2771 114.926 44.3338 114.407 44.3586C113.855 44.3869 113.338 44.401 112.857 44.401C112.405 44.401 111.895 44.3869 111.329 44.3586C110.802 44.3345 110.278 44.2779 109.758 44.1888ZM119.229 47.9277C119.851 47.7937 120.483 47.7084 121.118 47.6728C121.699 47.6445 122.201 47.6303 122.625 47.6303C123.191 47.6303 123.757 47.6445 124.323 47.6728C124.852 47.696 125.378 47.7671 125.894 47.8853L130.691 64.243L135.403 47.8853C135.884 47.8002 136.394 47.7365 136.932 47.6941C137.47 47.6517 138.007 47.6305 138.545 47.6303C138.969 47.6303 139.457 47.6445 140.009 47.6728C140.644 47.7121 141.276 47.7973 141.898 47.9277L133.578 69.8516C133.015 69.9391 132.449 69.9958 131.88 70.0215C131.286 70.0499 130.79 70.0641 130.394 70.064C129.969 70.064 129.488 70.0498 128.951 70.0215C128.436 69.9965 127.924 69.9254 127.422 69.8091L119.229 47.9277Z"
        fill="#4D4D4F"
        />
        <path
        d="M94.4082 78.8656C94.5012 78.8541 94.5917 78.8452 94.6792 78.8395C94.7667 78.8337 94.8511 78.8307 94.9327 78.8307C95.0257 78.8307 95.1132 78.8336 95.195 78.8395C95.2765 78.8452 95.3641 78.8541 95.4573 78.8656C95.4806 79.0757 95.4981 79.3382 95.5098 79.6531C95.5215 79.9681 95.5274 80.2423 95.5272 80.4757C95.6565 80.2479 95.8089 80.0339 95.9819 79.8372C96.1752 79.6151 96.3955 79.4182 96.6376 79.2509C96.9044 79.0677 97.1958 78.9234 97.5031 78.8222C97.8471 78.7085 98.2074 78.6523 98.5697 78.6559C98.9889 78.6189 99.4109 78.683 99.8003 78.8429C100.19 79.0027 100.535 79.2536 100.808 79.5746C101.317 80.3351 101.563 81.242 101.507 82.1559V87.7909C101.412 87.805 101.315 87.8137 101.219 87.8171C101.096 87.823 101 87.8259 100.93 87.8259C100.872 87.8259 100.779 87.823 100.65 87.8171C100.551 87.814 100.452 87.8052 100.353 87.7909V82.5059C100.413 81.764 100.252 81.0209 99.8898 80.3708C99.7309 80.1548 99.5203 79.9824 99.2774 79.8692C99.0345 79.7561 98.767 79.7059 98.4996 79.7233C98.1019 79.7212 97.7083 79.8047 97.3457 79.9683C96.9848 80.1313 96.6652 80.3736 96.4107 80.6771C96.1322 81.0158 95.9214 81.405 95.7899 81.8235C95.631 82.327 95.5542 82.8529 95.5626 83.3809V87.7909C95.4669 87.805 95.3706 87.8138 95.274 87.8171C95.1516 87.823 95.0554 87.8259 94.9855 87.8259C94.9272 87.8259 94.834 87.823 94.7057 87.8171C94.6063 87.814 94.507 87.8052 94.4085 87.7909L94.4082 78.8656ZM104.68 83.5032C104.599 84.4522 104.894 85.395 105.502 86.1283C105.834 86.4281 106.224 86.6571 106.648 86.8015C107.072 86.9459 107.521 87.0026 107.967 86.9682C108.381 86.971 108.794 86.9329 109.2 86.8545C109.577 86.7793 109.948 86.677 110.31 86.5485C110.375 86.6998 110.422 86.8584 110.45 87.0208C110.482 87.1885 110.505 87.358 110.52 87.5283C110.139 87.6927 109.74 87.8103 109.331 87.8784C108.84 87.9631 108.342 88.0041 107.844 88.0009C107.167 88.0172 106.493 87.9013 105.86 87.6596C105.337 87.4535 104.869 87.1267 104.496 86.7058C104.132 86.2811 103.863 85.7827 103.709 85.2445C103.535 84.6389 103.449 84.0111 103.456 83.3808C103.451 82.7604 103.531 82.1424 103.692 81.5433C103.835 81.0013 104.078 80.4908 104.408 80.0383C104.731 79.6049 105.154 79.2566 105.641 79.0232C106.206 78.7649 106.822 78.6392 107.442 78.6558C107.976 78.6462 108.506 78.7475 108.998 78.9533C109.438 79.1405 109.829 79.4248 110.144 79.7847C110.462 80.1578 110.7 80.5927 110.843 81.0621C111.005 81.5863 111.084 82.1324 111.079 82.6809C111.079 82.786 111.076 82.9202 111.07 83.0835C111.065 83.2467 111.056 83.3867 111.044 83.5034L104.68 83.5032ZM109.925 82.5407C109.926 82.1802 109.878 81.8213 109.785 81.4731C109.701 81.1413 109.552 80.8293 109.348 80.5544C109.143 80.2862 108.88 80.0679 108.579 79.9159C108.078 79.6906 107.522 79.6185 106.981 79.7088C106.44 79.7992 105.937 80.0478 105.537 80.4234C105.042 81.0225 104.754 81.765 104.715 82.5409L109.925 82.5407ZM113.553 79.8457H112.031C112.018 79.7705 112.009 79.6945 112.005 79.6182C111.999 79.5251 111.996 79.4318 111.996 79.3383C111.996 79.2447 111.999 79.1572 112.005 79.0757C112.01 79.0052 112.018 78.935 112.031 78.8656H113.553V77.1857L114.637 76.1182H114.707V78.8653H117.119C117.133 78.9347 117.142 79.0048 117.146 79.0753C117.152 79.157 117.155 79.2445 117.155 79.3379C117.155 79.4313 117.152 79.5246 117.146 79.6179C117.142 79.6942 117.133 79.7702 117.119 79.8454H114.707V85.6554C114.697 85.8912 114.735 86.1265 114.82 86.3467C114.885 86.5009 114.987 86.6363 115.117 86.7403C115.241 86.8341 115.385 86.8972 115.537 86.9242C115.696 86.9535 115.857 86.9681 116.018 86.9679C116.38 86.975 116.74 86.9218 117.085 86.8104C117.169 87.1318 117.228 87.4595 117.259 87.7904C116.782 87.9266 116.287 87.9914 115.791 87.9828C115.204 88.0094 114.629 87.8195 114.173 87.4492C113.949 87.2221 113.777 86.9485 113.67 86.6476C113.562 86.3467 113.522 86.0259 113.553 85.7079V79.8457ZM117.652 78.8656C117.742 78.852 117.832 78.8433 117.923 78.8395C118.034 78.8337 118.147 78.8308 118.264 78.8307C118.357 78.8307 118.471 78.8336 118.605 78.8395C118.707 78.8424 118.809 78.8512 118.911 78.8656L120.886 86.4608L123.089 78.8656C123.183 78.8541 123.285 78.8452 123.395 78.8395C123.506 78.8337 123.625 78.8307 123.754 78.8307H124.042C124.139 78.8305 124.236 78.8422 124.331 78.8656L126.534 86.3557L128.51 78.8656C128.594 78.8525 128.678 78.8438 128.763 78.8395C128.862 78.8337 128.958 78.8308 129.052 78.8307C129.145 78.8307 129.25 78.8336 129.366 78.8395C129.46 78.8431 129.553 78.8518 129.646 78.8656L127.076 87.7907C126.874 87.8251 126.669 87.8427 126.464 87.8432C126.259 87.8447 126.054 87.8271 125.852 87.7907L123.701 80.4058L121.446 87.7907C121.243 87.8251 121.039 87.8427 120.834 87.8432C120.628 87.8447 120.424 87.8271 120.222 87.7907L117.652 78.8656ZM134.48 86.9858C134.883 87.0125 135.286 86.9367 135.651 86.7653C136.017 86.5939 136.333 86.3325 136.57 86.0057C137.023 85.1861 137.261 84.2648 137.261 83.3282C137.261 82.3916 137.023 81.4703 136.57 80.6507C136.315 80.344 135.995 80.0973 135.634 79.9279C135.273 79.7586 134.879 79.6708 134.48 79.6708C134.082 79.6708 133.688 79.7586 133.327 79.9279C132.966 80.0973 132.646 80.344 132.391 80.6507C131.938 81.4703 131.7 82.3916 131.7 83.3282C131.7 84.2648 131.938 85.1861 132.391 86.0057C132.628 86.3326 132.944 86.594 133.309 86.7654C133.675 86.9368 134.078 87.0126 134.48 86.9858ZM134.48 88.0008C133.878 88.0137 133.28 87.891 132.732 87.6416C132.244 87.4133 131.816 87.0749 131.482 86.6529C131.138 86.211 130.886 85.7055 130.739 85.1655C130.412 83.9622 130.412 82.6936 130.739 81.4904C130.886 80.9503 131.138 80.4448 131.482 80.0028C131.816 79.5808 132.244 79.2424 132.732 79.0141C133.28 78.7649 133.878 78.6423 134.48 78.6554C135.08 78.6417 135.675 78.7643 136.22 79.0141C136.704 79.2442 137.129 79.5824 137.462 80.0028C137.805 80.4457 138.061 80.9508 138.213 81.4904C138.551 82.6921 138.551 83.9638 138.213 85.1655C138.061 85.705 137.805 86.2101 137.462 86.6529C137.129 87.0733 136.704 87.4116 136.22 87.6416C135.675 87.8916 135.08 88.0144 134.48 88.0008ZM140.573 78.8656C140.666 78.8541 140.756 78.8452 140.844 78.8395C140.931 78.8337 141.016 78.8307 141.097 78.8307C141.19 78.8307 141.278 78.8336 141.36 78.8395C141.441 78.8452 141.529 78.8541 141.622 78.8656C141.645 79.0757 141.663 79.3236 141.675 79.6095C141.686 79.8954 141.692 80.1549 141.692 80.3881C141.929 79.9523 142.264 79.5777 142.671 79.2944C143.165 78.9759 143.746 78.8198 144.333 78.8482H144.516C144.589 78.8489 144.662 78.8547 144.735 78.8656C144.768 79.0504 144.786 79.2378 144.787 79.4257C144.788 79.6078 144.77 79.7895 144.735 79.9682C144.662 79.9581 144.589 79.9523 144.516 79.9508H144.35C143.997 79.935 143.645 79.9939 143.317 80.1236C142.988 80.2532 142.691 80.4507 142.444 80.7032C141.898 81.417 141.642 82.3109 141.727 83.2057V87.7907C141.632 87.8049 141.535 87.8136 141.439 87.817C141.316 87.8228 141.22 87.8258 141.15 87.8258C141.092 87.8258 140.999 87.8228 140.87 87.817C140.771 87.8138 140.672 87.8051 140.573 87.7907L140.573 78.8656ZM146.228 74.9279C146.324 74.9137 146.42 74.9048 146.517 74.9013C146.639 74.8955 146.736 74.8926 146.805 74.8926C146.864 74.8926 146.957 74.8955 147.085 74.9013C147.185 74.9046 147.284 74.9135 147.383 74.9279V87.7905C147.284 87.8048 147.185 87.8136 147.085 87.8167C146.957 87.8226 146.864 87.8255 146.805 87.8255C146.736 87.8255 146.639 87.8226 146.517 87.8167C146.42 87.8134 146.324 87.8046 146.228 87.7905V74.9279ZM148.117 83.188L151.317 78.8653C151.519 78.8291 151.723 78.8115 151.929 78.8129C152.174 78.8121 152.42 78.8297 152.663 78.8653L149.481 83.0655L153.24 87.7905C153.032 87.8254 152.821 87.8429 152.611 87.843C152.359 87.8433 152.108 87.8258 151.859 87.7905L148.117 83.188ZM154.297 86.5654C154.619 86.6887 154.953 86.7796 155.294 86.8367C155.68 86.9105 156.072 86.9486 156.465 86.9505C157.055 86.9826 157.639 86.8197 158.127 86.4867C158.314 86.3599 158.468 86.1893 158.575 85.9895C158.681 85.7898 158.738 85.567 158.739 85.3405C158.749 85.069 158.686 84.7998 158.555 84.5617C158.431 84.356 158.264 84.1799 158.066 84.0455C157.852 83.9007 157.62 83.7858 157.375 83.7043C157.119 83.6167 156.856 83.5262 156.588 83.4329C156.297 83.3398 156.008 83.2348 155.723 83.1179C155.448 83.0079 155.192 82.8575 154.962 82.6717C154.719 82.4802 154.526 82.2333 154.398 81.9516C154.271 81.67 154.212 81.3619 154.228 81.053C154.218 80.724 154.283 80.3971 154.417 80.097C154.552 79.7968 154.753 79.5312 155.006 79.3204C155.704 78.8225 156.555 78.5869 157.41 78.6552C157.853 78.6541 158.295 78.6951 158.73 78.7777C159.067 78.8352 159.397 78.923 159.718 79.0402C159.66 79.3781 159.578 79.7115 159.473 80.0379C159.166 79.9397 158.854 79.8579 158.538 79.793C158.15 79.7104 157.754 79.6693 157.357 79.6705C156.825 79.6213 156.292 79.7539 155.845 80.0466C155.7 80.1664 155.585 80.3178 155.507 80.4892C155.43 80.6606 155.393 80.8475 155.399 81.0355C155.393 81.2354 155.445 81.4328 155.548 81.6042C155.651 81.766 155.788 81.9034 155.95 82.0067C156.131 82.1237 156.325 82.2205 156.527 82.2955C156.743 82.3771 156.973 82.453 157.218 82.5229C157.532 82.6279 157.85 82.7417 158.17 82.8642C158.483 82.9824 158.778 83.1445 159.045 83.3455C159.311 83.5482 159.531 83.8045 159.692 84.098C159.872 84.4492 159.959 84.8408 159.945 85.2354C159.951 85.632 159.864 86.0244 159.692 86.3816C159.525 86.7232 159.283 87.0224 158.984 87.2568C158.66 87.5065 158.292 87.6934 157.9 87.8079C157.451 87.9405 156.986 88.0055 156.518 88.0008C156.018 88.0051 155.518 87.97 155.023 87.8958C154.661 87.846 154.305 87.752 153.965 87.6157C154.039 87.255 154.15 86.903 154.298 86.5657L154.297 86.5654Z"
        fill="#4D4D4F"
        />
        <path
        d="M152.414 69.3302V41.717H159.014V69.3302H152.414ZM139.221 0C144.467 0.0129785 149.494 2.10425 153.203 5.81652C156.912 9.52878 159.001 14.56 159.014 19.8099V30.9163H152.414V19.8099C152.41 17.2039 151.635 14.6574 150.186 12.4922C148.737 10.327 146.679 8.6401 144.273 7.6446C141.867 6.64909 139.22 6.38962 136.666 6.89897C134.112 7.40831 131.767 8.66362 129.926 10.5064C128.085 12.3491 126.83 14.6966 126.322 17.2523C125.813 19.8081 126.072 22.4575 127.067 24.8658C128.061 27.2742 129.747 29.3335 131.91 30.7838C134.073 32.234 136.618 33.01 139.221 33.0138H172.207C177.452 33.0267 182.479 35.118 186.188 38.8302C189.897 42.5424 191.987 47.5736 192 52.8235V69.3302H185.399V52.8235C185.387 49.3254 183.993 45.974 181.522 43.5005C179.05 41.0269 175.702 39.6318 172.207 39.6196H139.221C133.978 39.61 128.953 37.5186 125.249 33.8046C121.545 30.0906 119.465 25.0574 119.465 19.8098C119.465 14.5622 121.545 9.52898 125.249 5.81497C128.953 2.10096 133.978 0.0096157 139.221 0Z"
        fill="#F68B1F"
        />
    </g>
</svg>