<svg xmlns='http://www.w3.org/2000/svg' xmlns:xlink='http://www.w3.org/1999/xlink' width="" height="" viewBox="0 0 25 24" preserveAspectRatio='xMidYMid meet' role='img' aria-hidden='true'>
    <path d="M11.3563 24V14.4411H13.6312V24H11.3563ZM6.80934 0C8.61724 0.00449276 10.3498 0.728428 11.6282 2.0135C12.9066 3.29857 13.6267 5.04021 13.6312 6.85757V10.7023H11.3563V6.85757C11.355 5.95545 11.0878 5.07396 10.5884 4.32442C10.089 3.57489 9.3798 2.99094 8.55044 2.64632C7.72107 2.30171 6.80872 2.21189 5.9286 2.38821C5.04849 2.56453 4.24009 2.99908 3.60551 3.63698C2.97094 4.27487 2.53865 5.0875 2.36325 5.97222C2.18785 6.85695 2.2772 7.77408 2.62002 8.60778C2.96284 9.44149 3.54375 10.1544 4.28938 10.6564C5.03501 11.1584 5.91192 11.427 6.80934 11.4284H18.1782C19.9861 11.4328 21.7187 12.1568 22.997 13.4418C24.2754 14.7269 24.9956 16.4685 25 18.2859V24H22.7251V18.2859C22.7209 17.0749 22.2405 15.9148 21.3887 15.0585C20.5369 14.2022 19.3828 13.7193 18.1782 13.7151H6.80934C5.00225 13.7118 3.27029 12.9878 1.99365 11.7021C0.71701 10.4164 0 8.6741 0 6.85754C0 5.04098 0.71701 3.29864 1.99365 2.01296C3.27029 0.727286 5.00225 0.00332866 6.80934 0Z" fill="white">
    </path>
</svg>