<?xml version="1.0" encoding="utf-8"?>
<svg width="0" height="0" class="hidden">
  <symbol xmlns="http://www.w3.org/2000/svg" fill="" stroke="" stroke-width="2" stroke-linecap="round" stroke-linejoin="round" viewBox="0 0 24 24" id="dashboard">
    <path d="M21.21 15.89A10 10 0 1 1 8 2.83"></path>
    <path d="M22 12A10 10 0 0 0 12 2v10z"></path>
  </symbol>
  <symbol xmlns="http://www.w3.org/2000/svg" fill="" stroke="" stroke-width="2" stroke-linecap="round" stroke-linejoin="round" viewBox="0 0 24 24" id="chevron-down">
    <polyline points="6 9 12 15 18 9"></polyline>
  </symbol>
  <symbol xmlns="http://www.w3.org/2000/svg" fill="" stroke="" stroke-width="2" stroke-linecap="round" stroke-linejoin="round" viewBox="0 0 24 24" id="networks">
    <rect x="2" y="2" width="20" height="8" rx="2" ry="2"></rect>
    <rect x="2" y="14" width="20" height="8" rx="2" ry="2"></rect>
    <line x1="6" y1="6" x2="6.01" y2="6"></line>
    <line x1="6" y1="18" x2="6.01" y2="18"></line>
  </symbol>
  <symbol xmlns="http://www.w3.org/2000/svg" fill="" stroke="" stroke-width="2" stroke-linecap="round" stroke-linejoin="round" viewBox="0 0 24 24" id="users">
    <path d="M17 21v-2a4 4 0 0 0-4-4H5a4 4 0 0 0-4 4v2"></path>
    <circle cx="9" cy="7" r="4"></circle>
    <path d="M23 21v-2a4 4 0 0 0-3-3.87"></path>
    <path d="M16 3.13a4 4 0 0 1 0 7.75"></path>
  </symbol>
  <symbol xmlns="http://www.w3.org/2000/svg" fill="" stroke="" stroke-width="2" stroke-linecap="round" stroke-linejoin="round" viewBox="0 0 24 24" id="search">
    <circle cx="11" cy="11" r="8"></circle>
    <line x1="21" y1="21" x2="16.65" y2="16.65"></line>
  </symbol>
  <symbol xmlns="http://www.w3.org/2000/svg" fill="" stroke="" stroke-width="2" stroke-linecap="round" stroke-linejoin="round" viewBox="0 0 24 24" id="home">
    <path d="M3 9l9-7 9 7v11a2 2 0 0 1-2 2H5a2 2 0 0 1-2-2z"></path>
    <polyline points="9 22 9 12 15 12 15 22"></polyline>
  </symbol>
  <symbol xmlns="http://www.w3.org/2000/svg" fill="" stroke="" stroke-width="2" stroke-linecap="round" stroke-linejoin="round" viewBox="0 0 24 24" id="chevron-right">
    <polyline points="9 18 15 12 9 6"></polyline>
  </symbol>
  <symbol xmlns="http://www.w3.org/2000/svg" fill="" stroke="" stroke-width="2" stroke-linecap="round" stroke-linejoin="round" viewBox="0 0 24 24" id="settings">
    <circle cx="12" cy="12" r="3"></circle>
    <path d="M19.4 15a1.65 1.65 0 0 0 .33 1.82l.06.06a2 2 0 0 1 0 2.83 2 2 0 0 1-2.83 0l-.06-.06a1.65 1.65 0 0 0-1.82-.33 1.65 1.65 0 0 0-1 1.51V21a2 2 0 0 1-2 2 2 2 0 0 1-2-2v-.09A1.65 1.65 0 0 0 9 19.4a1.65 1.65 0 0 0-1.82.33l-.06.06a2 2 0 0 1-2.83 0 2 2 0 0 1 0-2.83l.06-.06a1.65 1.65 0 0 0 .33-1.82 1.65 1.65 0 0 0-1.51-1H3a2 2 0 0 1-2-2 2 2 0 0 1 2-2h.09A1.65 1.65 0 0 0 4.6 9a1.65 1.65 0 0 0-.33-1.82l-.06-.06a2 2 0 0 1 0-2.83 2 2 0 0 1 2.83 0l.06.06a1.65 1.65 0 0 0 1.82.33H9a1.65 1.65 0 0 0 1-1.51V3a2 2 0 0 1 2-2 2 2 0 0 1 2 2v.09a1.65 1.65 0 0 0 1 1.51 1.65 1.65 0 0 0 1.82-.33l.06-.06a2 2 0 0 1 2.83 0 2 2 0 0 1 0 2.83l-.06.06a1.65 1.65 0 0 0-.33 1.82V9a1.65 1.65 0 0 0 1.51 1H21a2 2 0 0 1 2 2 2 2 0 0 1-2 2h-.09a1.65 1.65 0 0 0-1.51 1z"></path>
  </symbol>
  <symbol xmlns="http://www.w3.org/2000/svg" fill="" stroke="" stroke-width="2" stroke-linecap="round" stroke-linejoin="round" viewBox="0 0 24 24" id="box">
    <line x1="16.5" y1="9.4" x2="7.5" y2="4.21"></line>
    <path d="M21 16V8a2 2 0 0 0-1-1.73l-7-4a2 2 0 0 0-2 0l-7 4A2 2 0 0 0 3 8v8a2 2 0 0 0 1 1.73l7 4a2 2 0 0 0 2 0l7-4A2 2 0 0 0 21 16z"></path>
    <polyline points="3.27 6.96 12 12.01 20.73 6.96"></polyline>
    <line x1="12" y1="22.08" x2="12" y2="12"></line>
  </symbol>
    <symbol xmlns="http://www.w3.org/2000/svg" fill="" stroke="" stroke-width="2" stroke-linecap="round" stroke-linejoin="round" viewBox="0 0 24 24" id="bullish">
      <path d="M23 6L13.5 15.5L8.5 10.5L1 18" stroke="" stroke-width="2" stroke-linecap="round" stroke-linejoin="round"/>
      <path d="M17 6H23V12" stroke="" stroke-width="2" stroke-linecap="round" stroke-linejoin="round"/>
  </symbol>
    <symbol xmlns="http://www.w3.org/2000/svg" fill="" stroke="" stroke-width="2" stroke-linecap="round" stroke-linejoin="round" viewBox="0 0 24 24" id="bearish">
      <path d="M23.0576 18.4355L13.5576 8.93555L8.55762 13.9355L1.05762 6.43555" stroke="" stroke-width="2" stroke-linecap="round" stroke-linejoin="round"/>
      <path d="M17.0576 18.4355H23.0576V12.4355" stroke="" stroke-width="2" stroke-linecap="round" stroke-linejoin="round"/>
  </symbol>
</svg>
